# xmcd
#
# Track frame offsets: 
#        150
#        25176
#        64725
#        89612
#        114184
#        152633
#
# Disc length: 2407 seconds
#
# Revision: 1
# Processed by: cddbd v1.5.2PL0 Copyright (c) Steve Scherf et al.
# Submitted via: ExactAudioCopy v0.99pb4
#
DISCID=41096506
DTITLE=Jazztronik - [PCCA-02375] Jazztronik - LoveTribe - DISC 1 (Love
DTITLE=Tribe)
DYEAR=2007
DGENRE=Jazz
TTITLE0=Love Tribe <Main Mix> feat. Miss Vehna from Soul Trip!!
TTITLE1=The King of Dance
TTITLE2=Life Syncopetion
TTITLE3=Festalica!! <Clap Ya Hands!!>
TTITLE4=Tiger Eyes <English Ver.> feat. Monday Michiru
TTITLE5=Dust to Dust feat. Robert Gallagher and cro-magnon
EXTD=YEAR: 2007
EXTT0=
EXTT1=
EXTT2=
EXTT3=
EXTT4=
EXTT5=
PLAYORDER=
